%TF.GenerationSoftware,KiCad,Pcbnew,5.1.10-1.fc34*%
%TF.CreationDate,2021-08-02T19:45:02+02:00*%
%TF.ProjectId,domo_pool_hard,646f6d6f-5f70-46f6-9f6c-5f686172642e,rev?*%
%TF.SameCoordinates,Original*%
%TF.FileFunction,Legend,Bot*%
%TF.FilePolarity,Positive*%
%FSLAX46Y46*%
G04 Gerber Fmt 4.6, Leading zero omitted, Abs format (unit mm)*
G04 Created by KiCad (PCBNEW 5.1.10-1.fc34) date 2021-08-02 19:45:02*
%MOMM*%
%LPD*%
G01*
G04 APERTURE LIST*
%ADD10C,0.150000*%
G04 APERTURE END LIST*
D10*
%TO.C,XA1*%
X117340000Y-176000000D02*
X64000000Y-176000000D01*
X104640000Y-76940000D02*
X115816000Y-76940000D01*
X102100000Y-74400000D02*
X104640000Y-76940000D01*
X67810000Y-74400000D02*
X102100000Y-74400000D01*
X65270000Y-76940000D02*
X67810000Y-74400000D01*
X64000000Y-76940000D02*
X65270000Y-76940000D01*
X117340000Y-78464000D02*
X115816000Y-76940000D01*
X64000000Y-176000000D02*
X64000000Y-76940000D01*
X117340000Y-176000000D02*
X117340000Y-78464000D01*
X117808380Y-172221904D02*
X118808380Y-172888571D01*
X117808380Y-172888571D02*
X118808380Y-172221904D01*
X118522666Y-173221904D02*
X118522666Y-173698095D01*
X118808380Y-173126666D02*
X117808380Y-173460000D01*
X118808380Y-173793333D01*
X118808380Y-174650476D02*
X118808380Y-174079047D01*
X118808380Y-174364761D02*
X117808380Y-174364761D01*
X117951238Y-174269523D01*
X118046476Y-174174285D01*
X118094095Y-174079047D01*
X96361142Y-113516000D02*
X96408761Y-113563619D01*
X96456380Y-113516000D01*
X96408761Y-113468380D01*
X96361142Y-113516000D01*
X96456380Y-113516000D01*
%TD*%
M02*
