%TF.GenerationSoftware,KiCad,Pcbnew,5.1.10-1.fc34*%
%TF.CreationDate,2021-08-02T19:45:02+02:00*%
%TF.ProjectId,domo_pool_hard,646f6d6f-5f70-46f6-9f6c-5f686172642e,rev?*%
%TF.SameCoordinates,Original*%
%TF.FileFunction,Paste,Top*%
%TF.FilePolarity,Positive*%
%FSLAX46Y46*%
G04 Gerber Fmt 4.6, Leading zero omitted, Abs format (unit mm)*
G04 Created by KiCad (PCBNEW 5.1.10-1.fc34) date 2021-08-02 19:45:02*
%MOMM*%
%LPD*%
G01*
G04 APERTURE LIST*
%ADD10R,0.450000X1.750000*%
G04 APERTURE END LIST*
D10*
%TO.C,U3*%
X34925000Y-101600000D03*
X35575000Y-101600000D03*
X36225000Y-101600000D03*
X36875000Y-101600000D03*
X37525000Y-101600000D03*
X38175000Y-101600000D03*
X38825000Y-101600000D03*
X39475000Y-101600000D03*
X40125000Y-101600000D03*
X40775000Y-101600000D03*
X41425000Y-101600000D03*
X42075000Y-101600000D03*
X42075000Y-94400000D03*
X41425000Y-94400000D03*
X40775000Y-94400000D03*
X40125000Y-94400000D03*
X39475000Y-94400000D03*
X38825000Y-94400000D03*
X38175000Y-94400000D03*
X37525000Y-94400000D03*
X36875000Y-94400000D03*
X36225000Y-94400000D03*
X35575000Y-94400000D03*
X34925000Y-94400000D03*
%TD*%
%TO.C,U2*%
X35425000Y-70400000D03*
X36075000Y-70400000D03*
X36725000Y-70400000D03*
X37375000Y-70400000D03*
X38025000Y-70400000D03*
X38675000Y-70400000D03*
X39325000Y-70400000D03*
X39975000Y-70400000D03*
X40625000Y-70400000D03*
X41275000Y-70400000D03*
X41925000Y-70400000D03*
X42575000Y-70400000D03*
X42575000Y-77600000D03*
X41925000Y-77600000D03*
X41275000Y-77600000D03*
X40625000Y-77600000D03*
X39975000Y-77600000D03*
X39325000Y-77600000D03*
X38675000Y-77600000D03*
X38025000Y-77600000D03*
X37375000Y-77600000D03*
X36725000Y-77600000D03*
X36075000Y-77600000D03*
X35425000Y-77600000D03*
%TD*%
%TO.C,C4*%
G36*
G01*
X34737500Y-65175000D02*
X34262500Y-65175000D01*
G75*
G02*
X34025000Y-64937500I0J237500D01*
G01*
X34025000Y-64337500D01*
G75*
G02*
X34262500Y-64100000I237500J0D01*
G01*
X34737500Y-64100000D01*
G75*
G02*
X34975000Y-64337500I0J-237500D01*
G01*
X34975000Y-64937500D01*
G75*
G02*
X34737500Y-65175000I-237500J0D01*
G01*
G37*
G36*
G01*
X34737500Y-66900000D02*
X34262500Y-66900000D01*
G75*
G02*
X34025000Y-66662500I0J237500D01*
G01*
X34025000Y-66062500D01*
G75*
G02*
X34262500Y-65825000I237500J0D01*
G01*
X34737500Y-65825000D01*
G75*
G02*
X34975000Y-66062500I0J-237500D01*
G01*
X34975000Y-66662500D01*
G75*
G02*
X34737500Y-66900000I-237500J0D01*
G01*
G37*
%TD*%
%TO.C,C3*%
G36*
G01*
X34237500Y-91175000D02*
X33762500Y-91175000D01*
G75*
G02*
X33525000Y-90937500I0J237500D01*
G01*
X33525000Y-90337500D01*
G75*
G02*
X33762500Y-90100000I237500J0D01*
G01*
X34237500Y-90100000D01*
G75*
G02*
X34475000Y-90337500I0J-237500D01*
G01*
X34475000Y-90937500D01*
G75*
G02*
X34237500Y-91175000I-237500J0D01*
G01*
G37*
G36*
G01*
X34237500Y-92900000D02*
X33762500Y-92900000D01*
G75*
G02*
X33525000Y-92662500I0J237500D01*
G01*
X33525000Y-92062500D01*
G75*
G02*
X33762500Y-91825000I237500J0D01*
G01*
X34237500Y-91825000D01*
G75*
G02*
X34475000Y-92062500I0J-237500D01*
G01*
X34475000Y-92662500D01*
G75*
G02*
X34237500Y-92900000I-237500J0D01*
G01*
G37*
%TD*%
%TO.C,10k2*%
G36*
G01*
X111137500Y-160375000D02*
X110662500Y-160375000D01*
G75*
G02*
X110425000Y-160137500I0J237500D01*
G01*
X110425000Y-159637500D01*
G75*
G02*
X110662500Y-159400000I237500J0D01*
G01*
X111137500Y-159400000D01*
G75*
G02*
X111375000Y-159637500I0J-237500D01*
G01*
X111375000Y-160137500D01*
G75*
G02*
X111137500Y-160375000I-237500J0D01*
G01*
G37*
G36*
G01*
X111137500Y-162200000D02*
X110662500Y-162200000D01*
G75*
G02*
X110425000Y-161962500I0J237500D01*
G01*
X110425000Y-161462500D01*
G75*
G02*
X110662500Y-161225000I237500J0D01*
G01*
X111137500Y-161225000D01*
G75*
G02*
X111375000Y-161462500I0J-237500D01*
G01*
X111375000Y-161962500D01*
G75*
G02*
X111137500Y-162200000I-237500J0D01*
G01*
G37*
%TD*%
%TO.C,10k1*%
G36*
G01*
X106937500Y-160375000D02*
X106462500Y-160375000D01*
G75*
G02*
X106225000Y-160137500I0J237500D01*
G01*
X106225000Y-159637500D01*
G75*
G02*
X106462500Y-159400000I237500J0D01*
G01*
X106937500Y-159400000D01*
G75*
G02*
X107175000Y-159637500I0J-237500D01*
G01*
X107175000Y-160137500D01*
G75*
G02*
X106937500Y-160375000I-237500J0D01*
G01*
G37*
G36*
G01*
X106937500Y-162200000D02*
X106462500Y-162200000D01*
G75*
G02*
X106225000Y-161962500I0J237500D01*
G01*
X106225000Y-161462500D01*
G75*
G02*
X106462500Y-161225000I237500J0D01*
G01*
X106937500Y-161225000D01*
G75*
G02*
X107175000Y-161462500I0J-237500D01*
G01*
X107175000Y-161962500D01*
G75*
G02*
X106937500Y-162200000I-237500J0D01*
G01*
G37*
%TD*%
M02*
