%TF.GenerationSoftware,KiCad,Pcbnew,5.1.10-1.fc34*%
%TF.CreationDate,2021-08-02T19:45:02+02:00*%
%TF.ProjectId,domo_pool_hard,646f6d6f-5f70-46f6-9f6c-5f686172642e,rev?*%
%TF.SameCoordinates,Original*%
%TF.FileFunction,Legend,Top*%
%TF.FilePolarity,Positive*%
%FSLAX46Y46*%
G04 Gerber Fmt 4.6, Leading zero omitted, Abs format (unit mm)*
G04 Created by KiCad (PCBNEW 5.1.10-1.fc34) date 2021-08-02 19:45:02*
%MOMM*%
%LPD*%
G01*
G04 APERTURE LIST*
%ADD10C,0.120000*%
%ADD11C,0.150000*%
G04 APERTURE END LIST*
D10*
%TO.C,J17*%
X54910000Y-119030000D02*
X54910000Y-113830000D01*
X37070000Y-119030000D02*
X54910000Y-119030000D01*
X34470000Y-113830000D02*
X54910000Y-113830000D01*
X37070000Y-119030000D02*
X37070000Y-116430000D01*
X37070000Y-116430000D02*
X34470000Y-116430000D01*
X34470000Y-116430000D02*
X34470000Y-113830000D01*
X35800000Y-119030000D02*
X34470000Y-119030000D01*
X34470000Y-119030000D02*
X34470000Y-117700000D01*
D11*
%TO.C,U3*%
X34400000Y-100875000D02*
X34400000Y-102475000D01*
X42825000Y-100875000D02*
X42825000Y-95125000D01*
X34175000Y-100875000D02*
X34175000Y-95125000D01*
X42825000Y-100875000D02*
X42525000Y-100875000D01*
X42825000Y-95125000D02*
X42525000Y-95125000D01*
X34175000Y-95125000D02*
X34475000Y-95125000D01*
X34175000Y-100875000D02*
X34400000Y-100875000D01*
%TO.C,U2*%
X34675000Y-76875000D02*
X34900000Y-76875000D01*
X34675000Y-71125000D02*
X34975000Y-71125000D01*
X43325000Y-71125000D02*
X43025000Y-71125000D01*
X43325000Y-76875000D02*
X43025000Y-76875000D01*
X34675000Y-76875000D02*
X34675000Y-71125000D01*
X43325000Y-76875000D02*
X43325000Y-71125000D01*
X34900000Y-76875000D02*
X34900000Y-78475000D01*
D10*
%TO.C,U1*%
X134965000Y-69045000D02*
X122900000Y-69045000D01*
X122900000Y-69045000D02*
X122900000Y-86825000D01*
X122900000Y-86825000D02*
X134965000Y-86825000D01*
X134965000Y-86825000D02*
X134965000Y-69045000D01*
%TO.C,R2*%
X95960000Y-94160000D02*
X95630000Y-94160000D01*
X95630000Y-94160000D02*
X95630000Y-87620000D01*
X95630000Y-87620000D02*
X95960000Y-87620000D01*
X98040000Y-94160000D02*
X98370000Y-94160000D01*
X98370000Y-94160000D02*
X98370000Y-87620000D01*
X98370000Y-87620000D02*
X98040000Y-87620000D01*
%TO.C,R1*%
X99960000Y-94160000D02*
X99630000Y-94160000D01*
X99630000Y-94160000D02*
X99630000Y-87620000D01*
X99630000Y-87620000D02*
X99960000Y-87620000D01*
X102040000Y-94160000D02*
X102370000Y-94160000D01*
X102370000Y-94160000D02*
X102370000Y-87620000D01*
X102370000Y-87620000D02*
X102040000Y-87620000D01*
%TO.C,Q2*%
X128020000Y-124130000D02*
X138260000Y-124130000D01*
X128020000Y-128771000D02*
X138260000Y-128771000D01*
X128020000Y-124130000D02*
X128020000Y-128771000D01*
X138260000Y-124130000D02*
X138260000Y-128771000D01*
X128020000Y-125640000D02*
X138260000Y-125640000D01*
X131290000Y-124130000D02*
X131290000Y-125640000D01*
X134991000Y-124130000D02*
X134991000Y-125640000D01*
%TO.C,Q1*%
X133030000Y-106280000D02*
X133030000Y-96040000D01*
X137671000Y-106280000D02*
X137671000Y-96040000D01*
X133030000Y-106280000D02*
X137671000Y-106280000D01*
X133030000Y-96040000D02*
X137671000Y-96040000D01*
X134540000Y-106280000D02*
X134540000Y-96040000D01*
X133030000Y-103010000D02*
X134540000Y-103010000D01*
X133030000Y-99309000D02*
X134540000Y-99309000D01*
%TO.C,J16*%
X56650000Y-111330000D02*
X56650000Y-106130000D01*
X36270000Y-111330000D02*
X56650000Y-111330000D01*
X33670000Y-106130000D02*
X56650000Y-106130000D01*
X36270000Y-111330000D02*
X36270000Y-108730000D01*
X36270000Y-108730000D02*
X33670000Y-108730000D01*
X33670000Y-108730000D02*
X33670000Y-106130000D01*
X35000000Y-111330000D02*
X33670000Y-111330000D01*
X33670000Y-111330000D02*
X33670000Y-110000000D01*
%TO.C,J15*%
X57450000Y-87330000D02*
X57450000Y-82130000D01*
X37070000Y-87330000D02*
X57450000Y-87330000D01*
X34470000Y-82130000D02*
X57450000Y-82130000D01*
X37070000Y-87330000D02*
X37070000Y-84730000D01*
X37070000Y-84730000D02*
X34470000Y-84730000D01*
X34470000Y-84730000D02*
X34470000Y-82130000D01*
X35800000Y-87330000D02*
X34470000Y-87330000D01*
X34470000Y-87330000D02*
X34470000Y-86000000D01*
%TO.C,J14*%
X133900000Y-131940000D02*
X133900000Y-160460000D01*
X139200000Y-131940000D02*
X139200000Y-160460000D01*
X139660000Y-131940000D02*
X139660000Y-160460000D01*
X133340000Y-131940000D02*
X133340000Y-160460000D01*
X139660000Y-131940000D02*
X133340000Y-131940000D01*
X139660000Y-160460000D02*
X133340000Y-160460000D01*
X133840000Y-131700000D02*
X133100000Y-131700000D01*
X133100000Y-131700000D02*
X133100000Y-132200000D01*
%TO.C,J13*%
X139000000Y-168760000D02*
X139000000Y-167990000D01*
X139000000Y-166410000D02*
X139000000Y-165450000D01*
X139000000Y-163870000D02*
X139000000Y-163100000D01*
X133700000Y-168760000D02*
X133700000Y-163100000D01*
X133240000Y-168760000D02*
X133240000Y-163100000D01*
X139560000Y-168760000D02*
X139560000Y-167990000D01*
X139560000Y-166410000D02*
X139560000Y-165450000D01*
X139560000Y-163870000D02*
X139560000Y-163100000D01*
X133240000Y-168760000D02*
X139560000Y-168760000D01*
X133240000Y-163100000D02*
X139560000Y-163100000D01*
X139060000Y-169000000D02*
X139800000Y-169000000D01*
X139800000Y-169000000D02*
X139800000Y-168500000D01*
%TO.C,J12*%
X101460000Y-59000000D02*
X70399000Y-59000000D01*
X101460000Y-64300000D02*
X70399000Y-64300000D01*
X101460000Y-64760000D02*
X70399000Y-64760000D01*
X101460000Y-58440000D02*
X70399000Y-58440000D01*
X101460000Y-64760000D02*
X101460000Y-58440000D01*
X70399000Y-64760000D02*
X70399000Y-58440000D01*
X101700000Y-58940000D02*
X101700000Y-58200000D01*
X101700000Y-58200000D02*
X101200000Y-58200000D01*
%TO.C,J11*%
X124030000Y-101190000D02*
X121370000Y-101190000D01*
X124030000Y-164750000D02*
X124030000Y-101190000D01*
X121370000Y-164750000D02*
X121370000Y-101190000D01*
X124030000Y-164750000D02*
X121370000Y-164750000D01*
X124030000Y-166020000D02*
X124030000Y-167350000D01*
X124030000Y-167350000D02*
X122700000Y-167350000D01*
%TO.C,J10*%
X34440000Y-174900000D02*
X55341000Y-174900000D01*
X34440000Y-169600000D02*
X55341000Y-169600000D01*
X34440000Y-169140000D02*
X55341000Y-169140000D01*
X34440000Y-175460000D02*
X55341000Y-175460000D01*
X34440000Y-169140000D02*
X34440000Y-175460000D01*
X55341000Y-169140000D02*
X55341000Y-175460000D01*
X34200000Y-174960000D02*
X34200000Y-175700000D01*
X34200000Y-175700000D02*
X34700000Y-175700000D01*
%TO.C,J9*%
X35000000Y-162040000D02*
X35000000Y-162810000D01*
X35000000Y-164390000D02*
X35000000Y-165350000D01*
X35000000Y-166930000D02*
X35000000Y-167700000D01*
X40300000Y-162040000D02*
X40300000Y-167700000D01*
X40760000Y-162040000D02*
X40760000Y-167700000D01*
X34440000Y-162040000D02*
X34440000Y-162810000D01*
X34440000Y-164390000D02*
X34440000Y-165350000D01*
X34440000Y-166930000D02*
X34440000Y-167700000D01*
X40760000Y-162040000D02*
X34440000Y-162040000D01*
X40760000Y-167700000D02*
X34440000Y-167700000D01*
X34940000Y-161800000D02*
X34200000Y-161800000D01*
X34200000Y-161800000D02*
X34200000Y-162300000D01*
%TO.C,J8*%
X124360000Y-59000000D02*
X103459000Y-59000000D01*
X124360000Y-64300000D02*
X103459000Y-64300000D01*
X124360000Y-64760000D02*
X103459000Y-64760000D01*
X124360000Y-58440000D02*
X103459000Y-58440000D01*
X124360000Y-64760000D02*
X124360000Y-58440000D01*
X103459000Y-64760000D02*
X103459000Y-58440000D01*
X124600000Y-58940000D02*
X124600000Y-58200000D01*
X124600000Y-58200000D02*
X124100000Y-58200000D01*
%TO.C,J7*%
X68560000Y-59000000D02*
X47659000Y-59000000D01*
X68560000Y-64300000D02*
X47659000Y-64300000D01*
X68560000Y-64760000D02*
X47659000Y-64760000D01*
X68560000Y-58440000D02*
X47659000Y-58440000D01*
X68560000Y-64760000D02*
X68560000Y-58440000D01*
X47659000Y-64760000D02*
X47659000Y-58440000D01*
X68800000Y-58940000D02*
X68800000Y-58200000D01*
X68800000Y-58200000D02*
X68300000Y-58200000D01*
%TO.C,J6*%
X139000000Y-113460000D02*
X139000000Y-112690000D01*
X139000000Y-111110000D02*
X139000000Y-110150000D01*
X139000000Y-108570000D02*
X139000000Y-107800000D01*
X133700000Y-113460000D02*
X133700000Y-107800000D01*
X133240000Y-113460000D02*
X133240000Y-107800000D01*
X139560000Y-113460000D02*
X139560000Y-112690000D01*
X139560000Y-111110000D02*
X139560000Y-110150000D01*
X139560000Y-108570000D02*
X139560000Y-107800000D01*
X133240000Y-113460000D02*
X139560000Y-113460000D01*
X133240000Y-107800000D02*
X139560000Y-107800000D01*
X139060000Y-113700000D02*
X139800000Y-113700000D01*
X139800000Y-113700000D02*
X139800000Y-113200000D01*
%TO.C,J5*%
X139000000Y-94600000D02*
X139000000Y-93830000D01*
X139000000Y-92250000D02*
X139000000Y-91290000D01*
X139000000Y-89710000D02*
X139000000Y-88940000D01*
X133700000Y-94600000D02*
X133700000Y-88940000D01*
X133240000Y-94600000D02*
X133240000Y-88940000D01*
X139560000Y-94600000D02*
X139560000Y-93830000D01*
X139560000Y-92250000D02*
X139560000Y-91290000D01*
X139560000Y-89710000D02*
X139560000Y-88940000D01*
X133240000Y-94600000D02*
X139560000Y-94600000D01*
X133240000Y-88940000D02*
X139560000Y-88940000D01*
X139060000Y-94840000D02*
X139800000Y-94840000D01*
X139800000Y-94840000D02*
X139800000Y-94340000D01*
%TO.C,J4*%
X35000000Y-121740000D02*
X35000000Y-142641000D01*
X40300000Y-121740000D02*
X40300000Y-142641000D01*
X40760000Y-121740000D02*
X40760000Y-142641000D01*
X34440000Y-121740000D02*
X34440000Y-142641000D01*
X40760000Y-121740000D02*
X34440000Y-121740000D01*
X40760000Y-142641000D02*
X34440000Y-142641000D01*
X34940000Y-121500000D02*
X34200000Y-121500000D01*
X34200000Y-121500000D02*
X34200000Y-122000000D01*
%TO.C,J3*%
X70290000Y-67170000D02*
X70290000Y-72370000D01*
X113530000Y-67170000D02*
X70290000Y-67170000D01*
X116130000Y-72370000D02*
X70290000Y-72370000D01*
X113530000Y-67170000D02*
X113530000Y-69770000D01*
X113530000Y-69770000D02*
X116130000Y-69770000D01*
X116130000Y-69770000D02*
X116130000Y-72370000D01*
X114800000Y-67170000D02*
X116130000Y-67170000D01*
X116130000Y-67170000D02*
X116130000Y-68500000D01*
%TO.C,J2*%
X57770000Y-164550000D02*
X60430000Y-164550000D01*
X57770000Y-106070000D02*
X57770000Y-164550000D01*
X60430000Y-106070000D02*
X60430000Y-164550000D01*
X57770000Y-106070000D02*
X60430000Y-106070000D01*
X57770000Y-104800000D02*
X57770000Y-103470000D01*
X57770000Y-103470000D02*
X59100000Y-103470000D01*
%TO.C,J1*%
X135060000Y-59000000D02*
X134290000Y-59000000D01*
X132710000Y-59000000D02*
X131750000Y-59000000D01*
X130170000Y-59000000D02*
X129400000Y-59000000D01*
X135060000Y-64300000D02*
X129400000Y-64300000D01*
X135060000Y-64760000D02*
X129400000Y-64760000D01*
X135060000Y-58440000D02*
X134290000Y-58440000D01*
X132710000Y-58440000D02*
X131750000Y-58440000D01*
X130170000Y-58440000D02*
X129400000Y-58440000D01*
X135060000Y-64760000D02*
X135060000Y-58440000D01*
X129400000Y-64760000D02*
X129400000Y-58440000D01*
X135300000Y-58940000D02*
X135300000Y-58200000D01*
X135300000Y-58200000D02*
X134800000Y-58200000D01*
%TO.C,D2*%
X127460000Y-118990000D02*
X127130000Y-118990000D01*
X127130000Y-118990000D02*
X127130000Y-109850000D01*
X127130000Y-109850000D02*
X127460000Y-109850000D01*
X130740000Y-118990000D02*
X131070000Y-118990000D01*
X131070000Y-118990000D02*
X131070000Y-109850000D01*
X131070000Y-109850000D02*
X130740000Y-109850000D01*
X127130000Y-117535000D02*
X131070000Y-117535000D01*
X127130000Y-117415000D02*
X131070000Y-117415000D01*
X127130000Y-117655000D02*
X131070000Y-117655000D01*
%TO.C,D1*%
X127160000Y-100090000D02*
X126830000Y-100090000D01*
X126830000Y-100090000D02*
X126830000Y-90950000D01*
X126830000Y-90950000D02*
X127160000Y-90950000D01*
X130440000Y-100090000D02*
X130770000Y-100090000D01*
X130770000Y-100090000D02*
X130770000Y-90950000D01*
X130770000Y-90950000D02*
X130440000Y-90950000D01*
X126830000Y-98635000D02*
X130770000Y-98635000D01*
X126830000Y-98515000D02*
X130770000Y-98515000D01*
X126830000Y-98755000D02*
X130770000Y-98755000D01*
%TO.C,C4*%
X33990000Y-65646267D02*
X33990000Y-65353733D01*
X35010000Y-65646267D02*
X35010000Y-65353733D01*
%TO.C,C3*%
X33490000Y-91646267D02*
X33490000Y-91353733D01*
X34510000Y-91646267D02*
X34510000Y-91353733D01*
%TO.C,C2*%
X131680000Y-115630000D02*
X139920000Y-115630000D01*
X131680000Y-118370000D02*
X139920000Y-118370000D01*
X131680000Y-115630000D02*
X131680000Y-118370000D01*
X139920000Y-115630000D02*
X139920000Y-118370000D01*
%TO.C,C1*%
X121230000Y-95620000D02*
X121230000Y-87380000D01*
X123970000Y-95620000D02*
X123970000Y-87380000D01*
X121230000Y-95620000D02*
X123970000Y-95620000D01*
X121230000Y-87380000D02*
X123970000Y-87380000D01*
%TO.C,10k2*%
X110377500Y-161054724D02*
X110377500Y-160545276D01*
X111422500Y-161054724D02*
X111422500Y-160545276D01*
%TO.C,10k1*%
X106177500Y-161054724D02*
X106177500Y-160545276D01*
X107222500Y-161054724D02*
X107222500Y-160545276D01*
%TO.C,J17*%
D11*
X32922380Y-117239523D02*
X33636666Y-117239523D01*
X33779523Y-117287142D01*
X33874761Y-117382380D01*
X33922380Y-117525238D01*
X33922380Y-117620476D01*
X33922380Y-116239523D02*
X33922380Y-116810952D01*
X33922380Y-116525238D02*
X32922380Y-116525238D01*
X33065238Y-116620476D01*
X33160476Y-116715714D01*
X33208095Y-116810952D01*
X32922380Y-115906190D02*
X32922380Y-115239523D01*
X33922380Y-115668095D01*
%TO.C,U3*%
X32702380Y-98761904D02*
X33511904Y-98761904D01*
X33607142Y-98714285D01*
X33654761Y-98666666D01*
X33702380Y-98571428D01*
X33702380Y-98380952D01*
X33654761Y-98285714D01*
X33607142Y-98238095D01*
X33511904Y-98190476D01*
X32702380Y-98190476D01*
X32702380Y-97809523D02*
X32702380Y-97190476D01*
X33083333Y-97523809D01*
X33083333Y-97380952D01*
X33130952Y-97285714D01*
X33178571Y-97238095D01*
X33273809Y-97190476D01*
X33511904Y-97190476D01*
X33607142Y-97238095D01*
X33654761Y-97285714D01*
X33702380Y-97380952D01*
X33702380Y-97666666D01*
X33654761Y-97761904D01*
X33607142Y-97809523D01*
%TO.C,U2*%
X33202380Y-74761904D02*
X34011904Y-74761904D01*
X34107142Y-74714285D01*
X34154761Y-74666666D01*
X34202380Y-74571428D01*
X34202380Y-74380952D01*
X34154761Y-74285714D01*
X34107142Y-74238095D01*
X34011904Y-74190476D01*
X33202380Y-74190476D01*
X33297619Y-73761904D02*
X33250000Y-73714285D01*
X33202380Y-73619047D01*
X33202380Y-73380952D01*
X33250000Y-73285714D01*
X33297619Y-73238095D01*
X33392857Y-73190476D01*
X33488095Y-73190476D01*
X33630952Y-73238095D01*
X34202380Y-73809523D01*
X34202380Y-73190476D01*
%TO.C,U1*%
X128702380Y-78061904D02*
X129511904Y-78061904D01*
X129607142Y-78014285D01*
X129654761Y-77966666D01*
X129702380Y-77871428D01*
X129702380Y-77680952D01*
X129654761Y-77585714D01*
X129607142Y-77538095D01*
X129511904Y-77490476D01*
X128702380Y-77490476D01*
X129702380Y-76490476D02*
X129702380Y-77061904D01*
X129702380Y-76776190D02*
X128702380Y-76776190D01*
X128845238Y-76871428D01*
X128940476Y-76966666D01*
X128988095Y-77061904D01*
%TO.C,R2*%
X95082380Y-91056666D02*
X94606190Y-91390000D01*
X95082380Y-91628095D02*
X94082380Y-91628095D01*
X94082380Y-91247142D01*
X94130000Y-91151904D01*
X94177619Y-91104285D01*
X94272857Y-91056666D01*
X94415714Y-91056666D01*
X94510952Y-91104285D01*
X94558571Y-91151904D01*
X94606190Y-91247142D01*
X94606190Y-91628095D01*
X94177619Y-90675714D02*
X94130000Y-90628095D01*
X94082380Y-90532857D01*
X94082380Y-90294761D01*
X94130000Y-90199523D01*
X94177619Y-90151904D01*
X94272857Y-90104285D01*
X94368095Y-90104285D01*
X94510952Y-90151904D01*
X95082380Y-90723333D01*
X95082380Y-90104285D01*
%TO.C,R1*%
X99082380Y-91056666D02*
X98606190Y-91390000D01*
X99082380Y-91628095D02*
X98082380Y-91628095D01*
X98082380Y-91247142D01*
X98130000Y-91151904D01*
X98177619Y-91104285D01*
X98272857Y-91056666D01*
X98415714Y-91056666D01*
X98510952Y-91104285D01*
X98558571Y-91151904D01*
X98606190Y-91247142D01*
X98606190Y-91628095D01*
X99082380Y-90104285D02*
X99082380Y-90675714D01*
X99082380Y-90390000D02*
X98082380Y-90390000D01*
X98225238Y-90485238D01*
X98320476Y-90580476D01*
X98368095Y-90675714D01*
%TO.C,Q2*%
X133044761Y-123677619D02*
X132949523Y-123630000D01*
X132854285Y-123534761D01*
X132711428Y-123391904D01*
X132616190Y-123344285D01*
X132520952Y-123344285D01*
X132568571Y-123582380D02*
X132473333Y-123534761D01*
X132378095Y-123439523D01*
X132330476Y-123249047D01*
X132330476Y-122915714D01*
X132378095Y-122725238D01*
X132473333Y-122630000D01*
X132568571Y-122582380D01*
X132759047Y-122582380D01*
X132854285Y-122630000D01*
X132949523Y-122725238D01*
X132997142Y-122915714D01*
X132997142Y-123249047D01*
X132949523Y-123439523D01*
X132854285Y-123534761D01*
X132759047Y-123582380D01*
X132568571Y-123582380D01*
X133378095Y-122677619D02*
X133425714Y-122630000D01*
X133520952Y-122582380D01*
X133759047Y-122582380D01*
X133854285Y-122630000D01*
X133901904Y-122677619D01*
X133949523Y-122772857D01*
X133949523Y-122868095D01*
X133901904Y-123010952D01*
X133330476Y-123582380D01*
X133949523Y-123582380D01*
%TO.C,Q1*%
X132577619Y-101255238D02*
X132530000Y-101350476D01*
X132434761Y-101445714D01*
X132291904Y-101588571D01*
X132244285Y-101683809D01*
X132244285Y-101779047D01*
X132482380Y-101731428D02*
X132434761Y-101826666D01*
X132339523Y-101921904D01*
X132149047Y-101969523D01*
X131815714Y-101969523D01*
X131625238Y-101921904D01*
X131530000Y-101826666D01*
X131482380Y-101731428D01*
X131482380Y-101540952D01*
X131530000Y-101445714D01*
X131625238Y-101350476D01*
X131815714Y-101302857D01*
X132149047Y-101302857D01*
X132339523Y-101350476D01*
X132434761Y-101445714D01*
X132482380Y-101540952D01*
X132482380Y-101731428D01*
X132482380Y-100350476D02*
X132482380Y-100921904D01*
X132482380Y-100636190D02*
X131482380Y-100636190D01*
X131625238Y-100731428D01*
X131720476Y-100826666D01*
X131768095Y-100921904D01*
%TO.C,J16*%
X32122380Y-109539523D02*
X32836666Y-109539523D01*
X32979523Y-109587142D01*
X33074761Y-109682380D01*
X33122380Y-109825238D01*
X33122380Y-109920476D01*
X33122380Y-108539523D02*
X33122380Y-109110952D01*
X33122380Y-108825238D02*
X32122380Y-108825238D01*
X32265238Y-108920476D01*
X32360476Y-109015714D01*
X32408095Y-109110952D01*
X32122380Y-107682380D02*
X32122380Y-107872857D01*
X32170000Y-107968095D01*
X32217619Y-108015714D01*
X32360476Y-108110952D01*
X32550952Y-108158571D01*
X32931904Y-108158571D01*
X33027142Y-108110952D01*
X33074761Y-108063333D01*
X33122380Y-107968095D01*
X33122380Y-107777619D01*
X33074761Y-107682380D01*
X33027142Y-107634761D01*
X32931904Y-107587142D01*
X32693809Y-107587142D01*
X32598571Y-107634761D01*
X32550952Y-107682380D01*
X32503333Y-107777619D01*
X32503333Y-107968095D01*
X32550952Y-108063333D01*
X32598571Y-108110952D01*
X32693809Y-108158571D01*
%TO.C,J15*%
X32922380Y-85539523D02*
X33636666Y-85539523D01*
X33779523Y-85587142D01*
X33874761Y-85682380D01*
X33922380Y-85825238D01*
X33922380Y-85920476D01*
X33922380Y-84539523D02*
X33922380Y-85110952D01*
X33922380Y-84825238D02*
X32922380Y-84825238D01*
X33065238Y-84920476D01*
X33160476Y-85015714D01*
X33208095Y-85110952D01*
X32922380Y-83634761D02*
X32922380Y-84110952D01*
X33398571Y-84158571D01*
X33350952Y-84110952D01*
X33303333Y-84015714D01*
X33303333Y-83777619D01*
X33350952Y-83682380D01*
X33398571Y-83634761D01*
X33493809Y-83587142D01*
X33731904Y-83587142D01*
X33827142Y-83634761D01*
X33874761Y-83682380D01*
X33922380Y-83777619D01*
X33922380Y-84015714D01*
X33874761Y-84110952D01*
X33827142Y-84158571D01*
%TO.C,J14*%
X140112380Y-147009523D02*
X140826666Y-147009523D01*
X140969523Y-147057142D01*
X141064761Y-147152380D01*
X141112380Y-147295238D01*
X141112380Y-147390476D01*
X141112380Y-146009523D02*
X141112380Y-146580952D01*
X141112380Y-146295238D02*
X140112380Y-146295238D01*
X140255238Y-146390476D01*
X140350476Y-146485714D01*
X140398095Y-146580952D01*
X140445714Y-145152380D02*
X141112380Y-145152380D01*
X140064761Y-145390476D02*
X140779047Y-145628571D01*
X140779047Y-145009523D01*
%TO.C,J13*%
X131692380Y-166739523D02*
X132406666Y-166739523D01*
X132549523Y-166787142D01*
X132644761Y-166882380D01*
X132692380Y-167025238D01*
X132692380Y-167120476D01*
X132692380Y-165739523D02*
X132692380Y-166310952D01*
X132692380Y-166025238D02*
X131692380Y-166025238D01*
X131835238Y-166120476D01*
X131930476Y-166215714D01*
X131978095Y-166310952D01*
X131692380Y-165406190D02*
X131692380Y-164787142D01*
X132073333Y-165120476D01*
X132073333Y-164977619D01*
X132120952Y-164882380D01*
X132168571Y-164834761D01*
X132263809Y-164787142D01*
X132501904Y-164787142D01*
X132597142Y-164834761D01*
X132644761Y-164882380D01*
X132692380Y-164977619D01*
X132692380Y-165263333D01*
X132644761Y-165358571D01*
X132597142Y-165406190D01*
%TO.C,J12*%
X85120476Y-65212380D02*
X85120476Y-65926666D01*
X85072857Y-66069523D01*
X84977619Y-66164761D01*
X84834761Y-66212380D01*
X84739523Y-66212380D01*
X86120476Y-66212380D02*
X85549047Y-66212380D01*
X85834761Y-66212380D02*
X85834761Y-65212380D01*
X85739523Y-65355238D01*
X85644285Y-65450476D01*
X85549047Y-65498095D01*
X86501428Y-65307619D02*
X86549047Y-65260000D01*
X86644285Y-65212380D01*
X86882380Y-65212380D01*
X86977619Y-65260000D01*
X87025238Y-65307619D01*
X87072857Y-65402857D01*
X87072857Y-65498095D01*
X87025238Y-65640952D01*
X86453809Y-66212380D01*
X87072857Y-66212380D01*
%TO.C,J11*%
X121890476Y-167802380D02*
X121890476Y-168516666D01*
X121842857Y-168659523D01*
X121747619Y-168754761D01*
X121604761Y-168802380D01*
X121509523Y-168802380D01*
X122890476Y-168802380D02*
X122319047Y-168802380D01*
X122604761Y-168802380D02*
X122604761Y-167802380D01*
X122509523Y-167945238D01*
X122414285Y-168040476D01*
X122319047Y-168088095D01*
X123842857Y-168802380D02*
X123271428Y-168802380D01*
X123557142Y-168802380D02*
X123557142Y-167802380D01*
X123461904Y-167945238D01*
X123366666Y-168040476D01*
X123271428Y-168088095D01*
%TO.C,J10*%
X44080476Y-167592380D02*
X44080476Y-168306666D01*
X44032857Y-168449523D01*
X43937619Y-168544761D01*
X43794761Y-168592380D01*
X43699523Y-168592380D01*
X45080476Y-168592380D02*
X44509047Y-168592380D01*
X44794761Y-168592380D02*
X44794761Y-167592380D01*
X44699523Y-167735238D01*
X44604285Y-167830476D01*
X44509047Y-167878095D01*
X45699523Y-167592380D02*
X45794761Y-167592380D01*
X45890000Y-167640000D01*
X45937619Y-167687619D01*
X45985238Y-167782857D01*
X46032857Y-167973333D01*
X46032857Y-168211428D01*
X45985238Y-168401904D01*
X45937619Y-168497142D01*
X45890000Y-168544761D01*
X45794761Y-168592380D01*
X45699523Y-168592380D01*
X45604285Y-168544761D01*
X45556666Y-168497142D01*
X45509047Y-168401904D01*
X45461428Y-168211428D01*
X45461428Y-167973333D01*
X45509047Y-167782857D01*
X45556666Y-167687619D01*
X45604285Y-167640000D01*
X45699523Y-167592380D01*
%TO.C,J9*%
X41212380Y-165203333D02*
X41926666Y-165203333D01*
X42069523Y-165250952D01*
X42164761Y-165346190D01*
X42212380Y-165489047D01*
X42212380Y-165584285D01*
X42212380Y-164679523D02*
X42212380Y-164489047D01*
X42164761Y-164393809D01*
X42117142Y-164346190D01*
X41974285Y-164250952D01*
X41783809Y-164203333D01*
X41402857Y-164203333D01*
X41307619Y-164250952D01*
X41260000Y-164298571D01*
X41212380Y-164393809D01*
X41212380Y-164584285D01*
X41260000Y-164679523D01*
X41307619Y-164727142D01*
X41402857Y-164774761D01*
X41640952Y-164774761D01*
X41736190Y-164727142D01*
X41783809Y-164679523D01*
X41831428Y-164584285D01*
X41831428Y-164393809D01*
X41783809Y-164298571D01*
X41736190Y-164250952D01*
X41640952Y-164203333D01*
%TO.C,J8*%
X113576666Y-65212380D02*
X113576666Y-65926666D01*
X113529047Y-66069523D01*
X113433809Y-66164761D01*
X113290952Y-66212380D01*
X113195714Y-66212380D01*
X114195714Y-65640952D02*
X114100476Y-65593333D01*
X114052857Y-65545714D01*
X114005238Y-65450476D01*
X114005238Y-65402857D01*
X114052857Y-65307619D01*
X114100476Y-65260000D01*
X114195714Y-65212380D01*
X114386190Y-65212380D01*
X114481428Y-65260000D01*
X114529047Y-65307619D01*
X114576666Y-65402857D01*
X114576666Y-65450476D01*
X114529047Y-65545714D01*
X114481428Y-65593333D01*
X114386190Y-65640952D01*
X114195714Y-65640952D01*
X114100476Y-65688571D01*
X114052857Y-65736190D01*
X114005238Y-65831428D01*
X114005238Y-66021904D01*
X114052857Y-66117142D01*
X114100476Y-66164761D01*
X114195714Y-66212380D01*
X114386190Y-66212380D01*
X114481428Y-66164761D01*
X114529047Y-66117142D01*
X114576666Y-66021904D01*
X114576666Y-65831428D01*
X114529047Y-65736190D01*
X114481428Y-65688571D01*
X114386190Y-65640952D01*
%TO.C,J7*%
X57776666Y-65212380D02*
X57776666Y-65926666D01*
X57729047Y-66069523D01*
X57633809Y-66164761D01*
X57490952Y-66212380D01*
X57395714Y-66212380D01*
X58157619Y-65212380D02*
X58824285Y-65212380D01*
X58395714Y-66212380D01*
%TO.C,J6*%
X131692380Y-110963333D02*
X132406666Y-110963333D01*
X132549523Y-111010952D01*
X132644761Y-111106190D01*
X132692380Y-111249047D01*
X132692380Y-111344285D01*
X131692380Y-110058571D02*
X131692380Y-110249047D01*
X131740000Y-110344285D01*
X131787619Y-110391904D01*
X131930476Y-110487142D01*
X132120952Y-110534761D01*
X132501904Y-110534761D01*
X132597142Y-110487142D01*
X132644761Y-110439523D01*
X132692380Y-110344285D01*
X132692380Y-110153809D01*
X132644761Y-110058571D01*
X132597142Y-110010952D01*
X132501904Y-109963333D01*
X132263809Y-109963333D01*
X132168571Y-110010952D01*
X132120952Y-110058571D01*
X132073333Y-110153809D01*
X132073333Y-110344285D01*
X132120952Y-110439523D01*
X132168571Y-110487142D01*
X132263809Y-110534761D01*
%TO.C,J5*%
X131692380Y-92103333D02*
X132406666Y-92103333D01*
X132549523Y-92150952D01*
X132644761Y-92246190D01*
X132692380Y-92389047D01*
X132692380Y-92484285D01*
X131692380Y-91150952D02*
X131692380Y-91627142D01*
X132168571Y-91674761D01*
X132120952Y-91627142D01*
X132073333Y-91531904D01*
X132073333Y-91293809D01*
X132120952Y-91198571D01*
X132168571Y-91150952D01*
X132263809Y-91103333D01*
X132501904Y-91103333D01*
X132597142Y-91150952D01*
X132644761Y-91198571D01*
X132692380Y-91293809D01*
X132692380Y-91531904D01*
X132644761Y-91627142D01*
X132597142Y-91674761D01*
%TO.C,J4*%
X41212380Y-132523333D02*
X41926666Y-132523333D01*
X42069523Y-132570952D01*
X42164761Y-132666190D01*
X42212380Y-132809047D01*
X42212380Y-132904285D01*
X41545714Y-131618571D02*
X42212380Y-131618571D01*
X41164761Y-131856666D02*
X41879047Y-132094761D01*
X41879047Y-131475714D01*
%TO.C,J3*%
X116582380Y-70103333D02*
X117296666Y-70103333D01*
X117439523Y-70150952D01*
X117534761Y-70246190D01*
X117582380Y-70389047D01*
X117582380Y-70484285D01*
X116582380Y-69722380D02*
X116582380Y-69103333D01*
X116963333Y-69436666D01*
X116963333Y-69293809D01*
X117010952Y-69198571D01*
X117058571Y-69150952D01*
X117153809Y-69103333D01*
X117391904Y-69103333D01*
X117487142Y-69150952D01*
X117534761Y-69198571D01*
X117582380Y-69293809D01*
X117582380Y-69579523D01*
X117534761Y-69674761D01*
X117487142Y-69722380D01*
%TO.C,J2*%
X58766666Y-101922380D02*
X58766666Y-102636666D01*
X58719047Y-102779523D01*
X58623809Y-102874761D01*
X58480952Y-102922380D01*
X58385714Y-102922380D01*
X59195238Y-102017619D02*
X59242857Y-101970000D01*
X59338095Y-101922380D01*
X59576190Y-101922380D01*
X59671428Y-101970000D01*
X59719047Y-102017619D01*
X59766666Y-102112857D01*
X59766666Y-102208095D01*
X59719047Y-102350952D01*
X59147619Y-102922380D01*
X59766666Y-102922380D01*
%TO.C,J1*%
X131896666Y-65212380D02*
X131896666Y-65926666D01*
X131849047Y-66069523D01*
X131753809Y-66164761D01*
X131610952Y-66212380D01*
X131515714Y-66212380D01*
X132896666Y-66212380D02*
X132325238Y-66212380D01*
X132610952Y-66212380D02*
X132610952Y-65212380D01*
X132515714Y-65355238D01*
X132420476Y-65450476D01*
X132325238Y-65498095D01*
%TO.C,D2*%
X126582380Y-115158095D02*
X125582380Y-115158095D01*
X125582380Y-114920000D01*
X125630000Y-114777142D01*
X125725238Y-114681904D01*
X125820476Y-114634285D01*
X126010952Y-114586666D01*
X126153809Y-114586666D01*
X126344285Y-114634285D01*
X126439523Y-114681904D01*
X126534761Y-114777142D01*
X126582380Y-114920000D01*
X126582380Y-115158095D01*
X125677619Y-114205714D02*
X125630000Y-114158095D01*
X125582380Y-114062857D01*
X125582380Y-113824761D01*
X125630000Y-113729523D01*
X125677619Y-113681904D01*
X125772857Y-113634285D01*
X125868095Y-113634285D01*
X126010952Y-113681904D01*
X126582380Y-114253333D01*
X126582380Y-113634285D01*
X127152380Y-119761904D02*
X126152380Y-119761904D01*
X127152380Y-119190476D02*
X126580952Y-119619047D01*
X126152380Y-119190476D02*
X126723809Y-119761904D01*
%TO.C,D1*%
X126282380Y-96258095D02*
X125282380Y-96258095D01*
X125282380Y-96020000D01*
X125330000Y-95877142D01*
X125425238Y-95781904D01*
X125520476Y-95734285D01*
X125710952Y-95686666D01*
X125853809Y-95686666D01*
X126044285Y-95734285D01*
X126139523Y-95781904D01*
X126234761Y-95877142D01*
X126282380Y-96020000D01*
X126282380Y-96258095D01*
X126282380Y-94734285D02*
X126282380Y-95305714D01*
X126282380Y-95020000D02*
X125282380Y-95020000D01*
X125425238Y-95115238D01*
X125520476Y-95210476D01*
X125568095Y-95305714D01*
X126852380Y-100861904D02*
X125852380Y-100861904D01*
X126852380Y-100290476D02*
X126280952Y-100719047D01*
X125852380Y-100290476D02*
X126423809Y-100861904D01*
%TO.C,C4*%
X33427142Y-65666666D02*
X33474761Y-65714285D01*
X33522380Y-65857142D01*
X33522380Y-65952380D01*
X33474761Y-66095238D01*
X33379523Y-66190476D01*
X33284285Y-66238095D01*
X33093809Y-66285714D01*
X32950952Y-66285714D01*
X32760476Y-66238095D01*
X32665238Y-66190476D01*
X32570000Y-66095238D01*
X32522380Y-65952380D01*
X32522380Y-65857142D01*
X32570000Y-65714285D01*
X32617619Y-65666666D01*
X32855714Y-64809523D02*
X33522380Y-64809523D01*
X32474761Y-65047619D02*
X33189047Y-65285714D01*
X33189047Y-64666666D01*
%TO.C,C3*%
X32927142Y-91666666D02*
X32974761Y-91714285D01*
X33022380Y-91857142D01*
X33022380Y-91952380D01*
X32974761Y-92095238D01*
X32879523Y-92190476D01*
X32784285Y-92238095D01*
X32593809Y-92285714D01*
X32450952Y-92285714D01*
X32260476Y-92238095D01*
X32165238Y-92190476D01*
X32070000Y-92095238D01*
X32022380Y-91952380D01*
X32022380Y-91857142D01*
X32070000Y-91714285D01*
X32117619Y-91666666D01*
X32022380Y-91333333D02*
X32022380Y-90714285D01*
X32403333Y-91047619D01*
X32403333Y-90904761D01*
X32450952Y-90809523D01*
X32498571Y-90761904D01*
X32593809Y-90714285D01*
X32831904Y-90714285D01*
X32927142Y-90761904D01*
X32974761Y-90809523D01*
X33022380Y-90904761D01*
X33022380Y-91190476D01*
X32974761Y-91285714D01*
X32927142Y-91333333D01*
%TO.C,C2*%
X135633333Y-114857142D02*
X135585714Y-114904761D01*
X135442857Y-114952380D01*
X135347619Y-114952380D01*
X135204761Y-114904761D01*
X135109523Y-114809523D01*
X135061904Y-114714285D01*
X135014285Y-114523809D01*
X135014285Y-114380952D01*
X135061904Y-114190476D01*
X135109523Y-114095238D01*
X135204761Y-114000000D01*
X135347619Y-113952380D01*
X135442857Y-113952380D01*
X135585714Y-114000000D01*
X135633333Y-114047619D01*
X136014285Y-114047619D02*
X136061904Y-114000000D01*
X136157142Y-113952380D01*
X136395238Y-113952380D01*
X136490476Y-114000000D01*
X136538095Y-114047619D01*
X136585714Y-114142857D01*
X136585714Y-114238095D01*
X136538095Y-114380952D01*
X135966666Y-114952380D01*
X136585714Y-114952380D01*
%TO.C,C1*%
X120457142Y-91666666D02*
X120504761Y-91714285D01*
X120552380Y-91857142D01*
X120552380Y-91952380D01*
X120504761Y-92095238D01*
X120409523Y-92190476D01*
X120314285Y-92238095D01*
X120123809Y-92285714D01*
X119980952Y-92285714D01*
X119790476Y-92238095D01*
X119695238Y-92190476D01*
X119600000Y-92095238D01*
X119552380Y-91952380D01*
X119552380Y-91857142D01*
X119600000Y-91714285D01*
X119647619Y-91666666D01*
X120552380Y-90714285D02*
X120552380Y-91285714D01*
X120552380Y-91000000D02*
X119552380Y-91000000D01*
X119695238Y-91095238D01*
X119790476Y-91190476D01*
X119838095Y-91285714D01*
%TO.C,10k2*%
X109922380Y-161871428D02*
X109922380Y-162442857D01*
X109922380Y-162157142D02*
X108922380Y-162157142D01*
X109065238Y-162252380D01*
X109160476Y-162347619D01*
X109208095Y-162442857D01*
X108922380Y-161252380D02*
X108922380Y-161157142D01*
X108970000Y-161061904D01*
X109017619Y-161014285D01*
X109112857Y-160966666D01*
X109303333Y-160919047D01*
X109541428Y-160919047D01*
X109731904Y-160966666D01*
X109827142Y-161014285D01*
X109874761Y-161061904D01*
X109922380Y-161157142D01*
X109922380Y-161252380D01*
X109874761Y-161347619D01*
X109827142Y-161395238D01*
X109731904Y-161442857D01*
X109541428Y-161490476D01*
X109303333Y-161490476D01*
X109112857Y-161442857D01*
X109017619Y-161395238D01*
X108970000Y-161347619D01*
X108922380Y-161252380D01*
X109922380Y-160490476D02*
X108922380Y-160490476D01*
X109541428Y-160395238D02*
X109922380Y-160109523D01*
X109255714Y-160109523D02*
X109636666Y-160490476D01*
X109017619Y-159728571D02*
X108970000Y-159680952D01*
X108922380Y-159585714D01*
X108922380Y-159347619D01*
X108970000Y-159252380D01*
X109017619Y-159204761D01*
X109112857Y-159157142D01*
X109208095Y-159157142D01*
X109350952Y-159204761D01*
X109922380Y-159776190D01*
X109922380Y-159157142D01*
%TO.C,10k1*%
X105722380Y-161871428D02*
X105722380Y-162442857D01*
X105722380Y-162157142D02*
X104722380Y-162157142D01*
X104865238Y-162252380D01*
X104960476Y-162347619D01*
X105008095Y-162442857D01*
X104722380Y-161252380D02*
X104722380Y-161157142D01*
X104770000Y-161061904D01*
X104817619Y-161014285D01*
X104912857Y-160966666D01*
X105103333Y-160919047D01*
X105341428Y-160919047D01*
X105531904Y-160966666D01*
X105627142Y-161014285D01*
X105674761Y-161061904D01*
X105722380Y-161157142D01*
X105722380Y-161252380D01*
X105674761Y-161347619D01*
X105627142Y-161395238D01*
X105531904Y-161442857D01*
X105341428Y-161490476D01*
X105103333Y-161490476D01*
X104912857Y-161442857D01*
X104817619Y-161395238D01*
X104770000Y-161347619D01*
X104722380Y-161252380D01*
X105722380Y-160490476D02*
X104722380Y-160490476D01*
X105341428Y-160395238D02*
X105722380Y-160109523D01*
X105055714Y-160109523D02*
X105436666Y-160490476D01*
X105722380Y-159157142D02*
X105722380Y-159728571D01*
X105722380Y-159442857D02*
X104722380Y-159442857D01*
X104865238Y-159538095D01*
X104960476Y-159633333D01*
X105008095Y-159728571D01*
%TD*%
M02*
