M48
; DRILL file {KiCad 5.1.10-1.fc34} date Mon Aug  2 19:46:16 2021
; FORMAT={-:-/ absolute / inch / decimal}
; #@! TF.CreationDate,2021-08-02T19:46:16+02:00
; #@! TF.GenerationSoftware,Kicad,Pcbnew,5.1.10-1.fc34
; #@! TF.FileFunction,Plated,1,2,PTH
FMAT,2
INCH
T1C0.0157
T2C0.0315
T3C0.0394
T4C0.0400
T5C0.0433
T6C0.0441
T7C0.0551
%
G90
G05
T1
X1.3386Y-3.563
X1.378Y-2.4803
X1.437Y-3.8386
X1.6535Y-2.9724
X1.6535Y-3.9173
X1.9488Y-3.5827
X2.0669Y-3.5039
X2.2835Y-3.7795
X4.252Y-6.1614
X4.252Y-6.3583
X4.3661Y-6.3666
T2
X3.8189Y-3.4283
X3.8189Y-3.7283
X3.9764Y-3.4283
X3.9764Y-3.7283
X4.8268Y-3.5039
X4.8268Y-3.7008
X5.248Y-4.6063
X5.4449Y-4.6063
T3
X1.378Y-4.2307
X1.378Y-4.3307
X1.4094Y-3.2858
X1.4094Y-3.3858
X1.4094Y-4.5339
X1.4094Y-4.6339
X1.478Y-4.2307
X1.478Y-4.3307
X1.5094Y-3.2858
X1.5094Y-3.3858
X1.5094Y-4.5339
X1.5094Y-4.6339
X1.578Y-4.2307
X1.578Y-4.3307
X1.6094Y-3.2858
X1.6094Y-3.3858
X1.6094Y-4.5339
X1.6094Y-4.6339
X1.678Y-4.2307
X1.678Y-4.3307
X1.7094Y-3.2858
X1.7094Y-3.3858
X1.7094Y-4.5339
X1.7094Y-4.6339
X1.778Y-4.2307
X1.778Y-4.3307
X1.8094Y-3.2858
X1.8094Y-3.3858
X1.8094Y-4.5339
X1.8094Y-4.6339
X1.878Y-4.2307
X1.878Y-4.3307
X1.9094Y-3.2858
X1.9094Y-3.3858
X1.9094Y-4.5339
X1.9094Y-4.6339
X1.978Y-4.2307
X1.978Y-4.3307
X2.0094Y-3.2858
X2.0094Y-3.3858
X2.0094Y-4.5339
X2.0094Y-4.6339
X2.078Y-4.2307
X2.078Y-4.3307
X2.1094Y-3.2858
X2.1094Y-3.3858
X2.1094Y-4.5339
X2.1094Y-4.6339
X2.178Y-4.2307
X2.178Y-4.3307
X2.2094Y-3.2858
X2.2094Y-3.3858
X2.3268Y-4.126
X2.3268Y-4.226
X2.3268Y-4.326
X2.3268Y-4.426
X2.3268Y-4.526
X2.3268Y-4.626
X2.3268Y-4.726
X2.3268Y-4.826
X2.3268Y-4.926
X2.3268Y-5.026
X2.3268Y-5.126
X2.3268Y-5.226
X2.3268Y-5.326
X2.3268Y-5.426
X2.3268Y-5.526
X2.3268Y-5.626
X2.3268Y-5.726
X2.3268Y-5.826
X2.3268Y-5.926
X2.3268Y-6.026
X2.3268Y-6.126
X2.3268Y-6.226
X2.3268Y-6.326
X2.3268Y-6.426
X2.8197Y-2.6969
X2.8197Y-2.7969
X2.9197Y-2.6969
X2.9197Y-2.7969
X3.0197Y-2.6969
X3.0197Y-2.7969
X3.1197Y-2.6969
X3.1197Y-2.7969
X3.2197Y-2.6969
X3.2197Y-2.7969
X3.3197Y-2.6969
X3.3197Y-2.7969
X3.4197Y-2.6969
X3.4197Y-2.7969
X3.5197Y-2.6969
X3.5197Y-2.7969
X3.6197Y-2.6969
X3.6197Y-2.7969
X3.7197Y-2.6969
X3.7197Y-2.7969
X3.8197Y-2.6969
X3.8197Y-2.7969
X3.9197Y-2.6969
X3.9197Y-2.7969
X4.0197Y-2.6969
X4.0197Y-2.7969
X4.1197Y-2.6969
X4.1197Y-2.7969
X4.2197Y-2.6969
X4.2197Y-2.7969
X4.3197Y-2.6969
X4.3197Y-2.7969
X4.4197Y-2.6969
X4.4197Y-2.7969
X4.5197Y-2.6969
X4.5197Y-2.7969
X4.8307Y-4.0362
X4.8307Y-4.1362
X4.8307Y-4.2362
X4.8307Y-4.3362
X4.8307Y-4.4362
X4.8307Y-4.5362
X4.8307Y-4.6362
X4.8307Y-4.7362
X4.8307Y-4.8362
X4.8307Y-4.9362
X4.8307Y-5.0362
X4.8307Y-5.1362
X4.8307Y-5.2362
X4.8307Y-5.3362
X4.8307Y-5.4362
X4.8307Y-5.5362
X4.8307Y-5.6362
X4.8307Y-5.7362
X4.8307Y-5.8362
X4.8307Y-5.9362
X4.8307Y-6.0362
X4.8307Y-6.1362
X4.8307Y-6.2362
X4.8307Y-6.3362
X4.8307Y-6.4362
X4.8307Y-6.5362
T4
X2.6197Y-3.3291
X2.6197Y-3.4291
X2.6197Y-3.5291
X2.6197Y-3.6291
X2.6197Y-3.7291
X2.6197Y-3.8291
X2.6197Y-3.9291
X2.6197Y-4.0291
X2.6197Y-4.2291
X2.6197Y-4.3291
X2.6197Y-4.4291
X2.6197Y-4.5291
X2.6197Y-4.6291
X2.6197Y-4.7291
X2.6197Y-4.8291
X2.6197Y-4.9291
X2.6197Y-5.1291
X2.6197Y-5.2291
X2.6197Y-5.3291
X2.6197Y-5.4291
X2.6197Y-5.5291
X2.6197Y-5.6291
X2.6197Y-5.7291
X2.6197Y-5.8291
X2.8197Y-3.1291
X2.8197Y-3.2291
X2.9197Y-3.1291
X2.9197Y-3.2291
X3.0197Y-3.1291
X3.0197Y-3.2291
X3.1197Y-3.1291
X3.1197Y-3.2291
X3.2197Y-3.1291
X3.2197Y-3.2291
X3.3197Y-3.1291
X3.3197Y-3.2291
X3.4197Y-3.1291
X3.4197Y-3.2291
X3.5197Y-3.1291
X3.5197Y-3.2291
X3.5197Y-4.3241
X3.5197Y-4.4241
X3.6197Y-3.1291
X3.6197Y-3.2291
X3.6197Y-4.3241
X3.6197Y-4.4241
X3.7197Y-3.1291
X3.7197Y-3.2291
X3.7197Y-4.3241
X3.7197Y-4.4241
X3.8197Y-3.1291
X3.8197Y-3.2291
X3.9197Y-3.1291
X3.9197Y-3.2291
X4.0197Y-3.1291
X4.0197Y-3.2291
X4.1197Y-3.1291
X4.1197Y-3.2291
X4.2197Y-3.1291
X4.2197Y-3.2291
X4.3197Y-3.1291
X4.3197Y-3.2291
X4.4197Y-3.1291
X4.4197Y-3.2291
X4.5197Y-3.1291
X4.5197Y-3.2291
X4.5197Y-3.5291
X4.5197Y-3.6291
X4.5197Y-3.7291
X4.5197Y-3.8291
X4.5197Y-3.9291
X4.5197Y-4.0291
X4.5197Y-4.1291
X4.5197Y-4.2291
X4.5197Y-4.4291
X4.5197Y-4.5291
X4.5197Y-4.6291
X4.5197Y-4.7291
X4.5197Y-4.8291
X4.5197Y-4.9291
X4.5197Y-5.0291
X4.5197Y-5.1291
X4.5197Y-5.2891
X4.5197Y-5.3891
X4.5197Y-5.4891
X4.5197Y-5.5891
X4.5197Y-5.6891
X4.5197Y-5.7891
X4.5197Y-5.8891
X4.5197Y-5.9891
X4.5197Y-6.0891
X4.5197Y-6.1891
T5
X1.4173Y-6.7835
X1.4803Y-4.8543
X1.4803Y-4.9543
X1.4803Y-5.0543
X1.4803Y-5.1543
X1.4803Y-5.2543
X1.4803Y-5.3543
X1.4803Y-5.4543
X1.4803Y-5.5543
X1.4803Y-6.4409
X1.4803Y-6.5409
X1.5173Y-6.7835
X1.6173Y-6.7835
X1.7173Y-6.7835
X1.8173Y-6.7835
X1.9173Y-6.7835
X1.9378Y-2.4252
X2.0173Y-6.7835
X2.0378Y-2.4252
X2.1173Y-6.7835
X2.1378Y-2.4252
X2.2378Y-2.4252
X2.3378Y-2.4252
X2.4378Y-2.4252
X2.5378Y-2.4252
X2.6378Y-2.4252
X2.8331Y-2.4252
X2.9331Y-2.4252
X3.0331Y-2.4252
X3.1331Y-2.4252
X3.2331Y-2.4252
X3.3331Y-2.4252
X3.4331Y-2.4252
X3.5331Y-2.4252
X3.6331Y-2.4252
X3.7331Y-2.4252
X3.8331Y-2.4252
X3.9331Y-2.4252
X4.1346Y-2.4252
X4.2346Y-2.4252
X4.3346Y-2.4252
X4.4346Y-2.4252
X4.5346Y-2.4252
X4.6346Y-2.4252
X4.7346Y-2.4252
X4.8346Y-2.4252
X5.1417Y-5.0157
X5.1559Y-2.4252
X5.2417Y-5.0157
X5.2559Y-2.4252
X5.3417Y-5.0157
X5.3661Y-3.8827
X5.3661Y-3.9827
X5.3661Y-4.0827
X5.3701Y-3.563
X5.3701Y-3.663
X5.3701Y-4.3055
X5.3701Y-4.4055
X5.3701Y-6.4827
X5.3701Y-6.5827
X5.374Y-5.2559
X5.374Y-5.3559
X5.374Y-5.4559
X5.374Y-5.5559
X5.374Y-5.6559
X5.374Y-5.7559
X5.374Y-5.8559
X5.374Y-5.9559
X5.374Y-6.0559
X5.374Y-6.1559
X5.374Y-6.2559
T6
X4.8886Y-2.7683
X4.8886Y-3.3683
X5.2636Y-2.7683
X5.2636Y-3.3683
T7
X5.0709Y-3.5606
X5.0709Y-3.9606
X5.0827Y-4.3047
X5.0827Y-4.7047
T0
M30
