%TF.GenerationSoftware,KiCad,Pcbnew,5.1.10-1.fc34*%
%TF.CreationDate,2021-08-02T19:45:02+02:00*%
%TF.ProjectId,domo_pool_hard,646f6d6f-5f70-46f6-9f6c-5f686172642e,rev?*%
%TF.SameCoordinates,Original*%
%TF.FileFunction,Soldermask,Bot*%
%TF.FilePolarity,Negative*%
%FSLAX46Y46*%
G04 Gerber Fmt 4.6, Leading zero omitted, Abs format (unit mm)*
G04 Created by KiCad (PCBNEW 5.1.10-1.fc34) date 2021-08-02 19:45:02*
%MOMM*%
%LPD*%
G01*
G04 APERTURE LIST*
%ADD10O,1.727200X1.727200*%
%ADD11C,3.200000*%
%ADD12O,1.700000X1.700000*%
%ADD13R,1.700000X1.700000*%
%ADD14C,1.524000*%
%ADD15O,1.600000X1.600000*%
%ADD16C,1.600000*%
%ADD17O,1.905000X2.000000*%
%ADD18R,1.905000X2.000000*%
%ADD19O,2.000000X1.905000*%
%ADD20R,2.000000X1.905000*%
%ADD21C,2.200000*%
%ADD22R,2.200000X2.200000*%
%ADD23C,1.100000*%
%ADD24O,2.800000X2.800000*%
%ADD25R,2.800000X2.800000*%
G04 APERTURE END LIST*
D10*
%TO.C,XA1*%
X94480000Y-112373000D03*
X71620000Y-79480000D03*
X71620000Y-82020000D03*
X74160000Y-79480000D03*
X74160000Y-82020000D03*
X76700000Y-79480000D03*
X76700000Y-82020000D03*
X79240000Y-79480000D03*
X79240000Y-82020000D03*
X81780000Y-79480000D03*
X81780000Y-82020000D03*
X84320000Y-79480000D03*
X84320000Y-82020000D03*
X86860000Y-79480000D03*
X86860000Y-82020000D03*
X89400000Y-79480000D03*
X89400000Y-82020000D03*
X91940000Y-79480000D03*
X91940000Y-82020000D03*
X94480000Y-79480000D03*
X94480000Y-82020000D03*
X97020000Y-79480000D03*
X97020000Y-82020000D03*
X99560000Y-79480000D03*
X99560000Y-82020000D03*
X102100000Y-79480000D03*
X102100000Y-82020000D03*
X104640000Y-79480000D03*
X104640000Y-82020000D03*
X107180000Y-79480000D03*
X107180000Y-82020000D03*
X109720000Y-79480000D03*
X109720000Y-82020000D03*
X112260000Y-79480000D03*
X112260000Y-82020000D03*
X114800000Y-79480000D03*
X114800000Y-82020000D03*
X66540000Y-84560000D03*
X66540000Y-87100000D03*
X66540000Y-89640000D03*
X66540000Y-92180000D03*
X66540000Y-94720000D03*
X66540000Y-97260000D03*
X66540000Y-99800000D03*
X66540000Y-102340000D03*
X66540000Y-107420000D03*
X66540000Y-109960000D03*
X66540000Y-112500000D03*
X66540000Y-115040000D03*
X66540000Y-117580000D03*
X66540000Y-120120000D03*
X66540000Y-122660000D03*
X66540000Y-148060000D03*
X114800000Y-141964000D03*
X114800000Y-144504000D03*
X114800000Y-147044000D03*
X114800000Y-152124000D03*
X114800000Y-154664000D03*
X114800000Y-157204000D03*
D11*
X66540000Y-162030000D03*
X66540000Y-79480000D03*
X114800000Y-160760000D03*
X114800000Y-85830000D03*
X99560000Y-109960000D03*
X71620000Y-109960000D03*
D10*
X114800000Y-139424000D03*
X114800000Y-136884000D03*
X114800000Y-134344000D03*
X114800000Y-149584000D03*
X114800000Y-130280000D03*
X114800000Y-127740000D03*
X114800000Y-125200000D03*
X114800000Y-122660000D03*
X114800000Y-120120000D03*
X114800000Y-117580000D03*
X114800000Y-115040000D03*
X114800000Y-112500000D03*
X114800000Y-107420000D03*
X114800000Y-104880000D03*
X114800000Y-102340000D03*
X114800000Y-99800000D03*
X114800000Y-97260000D03*
X114800000Y-94720000D03*
X114800000Y-92180000D03*
X114800000Y-89640000D03*
X66540000Y-145520000D03*
X66540000Y-142980000D03*
X66540000Y-140440000D03*
X66540000Y-137900000D03*
X66540000Y-135360000D03*
X66540000Y-132820000D03*
X66540000Y-130280000D03*
X66540000Y-125200000D03*
X94480000Y-109833000D03*
X91940000Y-112373000D03*
X91940000Y-109833000D03*
X89400000Y-109833000D03*
X89400000Y-112373000D03*
%TD*%
D12*
%TO.C,J17*%
X53580000Y-115160000D03*
X53580000Y-117700000D03*
X51040000Y-115160000D03*
X51040000Y-117700000D03*
X48500000Y-115160000D03*
X48500000Y-117700000D03*
X45960000Y-115160000D03*
X45960000Y-117700000D03*
X43420000Y-115160000D03*
X43420000Y-117700000D03*
X40880000Y-115160000D03*
X40880000Y-117700000D03*
X38340000Y-115160000D03*
X38340000Y-117700000D03*
X35800000Y-115160000D03*
D13*
X35800000Y-117700000D03*
%TD*%
D14*
%TO.C,U1*%
X133695000Y-85555000D03*
X124170000Y-85555000D03*
X124170000Y-70315000D03*
X133695000Y-70315000D03*
%TD*%
D15*
%TO.C,R2*%
X97000000Y-87080000D03*
D16*
X97000000Y-94700000D03*
%TD*%
D15*
%TO.C,R1*%
X101000000Y-87080000D03*
D16*
X101000000Y-94700000D03*
%TD*%
D17*
%TO.C,Q2*%
X135680000Y-127400000D03*
X133140000Y-127400000D03*
D18*
X130600000Y-127400000D03*
%TD*%
D19*
%TO.C,Q1*%
X136300000Y-98620000D03*
X136300000Y-101160000D03*
D20*
X136300000Y-103700000D03*
%TD*%
D12*
%TO.C,J16*%
X55320000Y-107460000D03*
X55320000Y-110000000D03*
X52780000Y-107460000D03*
X52780000Y-110000000D03*
X50240000Y-107460000D03*
X50240000Y-110000000D03*
X47700000Y-107460000D03*
X47700000Y-110000000D03*
X45160000Y-107460000D03*
X45160000Y-110000000D03*
X42620000Y-107460000D03*
X42620000Y-110000000D03*
X40080000Y-107460000D03*
X40080000Y-110000000D03*
X37540000Y-107460000D03*
X37540000Y-110000000D03*
X35000000Y-107460000D03*
D13*
X35000000Y-110000000D03*
%TD*%
D12*
%TO.C,J15*%
X56120000Y-83460000D03*
X56120000Y-86000000D03*
X53580000Y-83460000D03*
X53580000Y-86000000D03*
X51040000Y-83460000D03*
X51040000Y-86000000D03*
X48500000Y-83460000D03*
X48500000Y-86000000D03*
X45960000Y-83460000D03*
X45960000Y-86000000D03*
X43420000Y-83460000D03*
X43420000Y-86000000D03*
X40880000Y-83460000D03*
X40880000Y-86000000D03*
X38340000Y-83460000D03*
X38340000Y-86000000D03*
X35800000Y-83460000D03*
D13*
X35800000Y-86000000D03*
%TD*%
D21*
%TO.C,J14*%
X136500000Y-158900000D03*
X136500000Y-156360000D03*
X136500000Y-153820000D03*
X136500000Y-151280000D03*
X136500000Y-148740000D03*
X136500000Y-146200000D03*
X136500000Y-143660000D03*
X136500000Y-141120000D03*
X136500000Y-138580000D03*
X136500000Y-136040000D03*
D22*
X136500000Y-133500000D03*
%TD*%
D23*
%TO.C,J13*%
X138940000Y-164660000D03*
D21*
X136400000Y-164660000D03*
D23*
X138940000Y-167200000D03*
D22*
X136400000Y-167200000D03*
%TD*%
D21*
%TO.C,J12*%
X71960000Y-61600000D03*
X74500000Y-61600000D03*
X77040000Y-61600000D03*
X79580000Y-61600000D03*
X82120000Y-61600000D03*
X84660000Y-61600000D03*
X87200000Y-61600000D03*
X89740000Y-61600000D03*
X92280000Y-61600000D03*
X94820000Y-61600000D03*
X97360000Y-61600000D03*
D22*
X99900000Y-61600000D03*
%TD*%
D12*
%TO.C,J11*%
X122700000Y-102520000D03*
X122700000Y-105060000D03*
X122700000Y-107600000D03*
X122700000Y-110140000D03*
X122700000Y-112680000D03*
X122700000Y-115220000D03*
X122700000Y-117760000D03*
X122700000Y-120300000D03*
X122700000Y-122840000D03*
X122700000Y-125380000D03*
X122700000Y-127920000D03*
X122700000Y-130460000D03*
X122700000Y-133000000D03*
X122700000Y-135540000D03*
X122700000Y-138080000D03*
X122700000Y-140620000D03*
X122700000Y-143160000D03*
X122700000Y-145700000D03*
X122700000Y-148240000D03*
X122700000Y-150780000D03*
X122700000Y-153320000D03*
X122700000Y-155860000D03*
X122700000Y-158400000D03*
X122700000Y-160940000D03*
X122700000Y-163480000D03*
D13*
X122700000Y-166020000D03*
%TD*%
D21*
%TO.C,J10*%
X53780000Y-172300000D03*
X51240000Y-172300000D03*
X48700000Y-172300000D03*
X46160000Y-172300000D03*
X43620000Y-172300000D03*
X41080000Y-172300000D03*
X38540000Y-172300000D03*
D22*
X36000000Y-172300000D03*
%TD*%
D23*
%TO.C,J9*%
X35060000Y-166140000D03*
D21*
X37600000Y-166140000D03*
D23*
X35060000Y-163600000D03*
D22*
X37600000Y-163600000D03*
%TD*%
D21*
%TO.C,J8*%
X105020000Y-61600000D03*
X107560000Y-61600000D03*
X110100000Y-61600000D03*
X112640000Y-61600000D03*
X115180000Y-61600000D03*
X117720000Y-61600000D03*
X120260000Y-61600000D03*
D22*
X122800000Y-61600000D03*
%TD*%
D21*
%TO.C,J7*%
X49220000Y-61600000D03*
X51760000Y-61600000D03*
X54300000Y-61600000D03*
X56840000Y-61600000D03*
X59380000Y-61600000D03*
X61920000Y-61600000D03*
X64460000Y-61600000D03*
D22*
X67000000Y-61600000D03*
%TD*%
D23*
%TO.C,J6*%
X138940000Y-109360000D03*
D21*
X136400000Y-109360000D03*
D23*
X138940000Y-111900000D03*
D22*
X136400000Y-111900000D03*
%TD*%
D23*
%TO.C,J5*%
X138940000Y-90500000D03*
D21*
X136400000Y-90500000D03*
D23*
X138940000Y-93040000D03*
D22*
X136400000Y-93040000D03*
%TD*%
D21*
%TO.C,J4*%
X37600000Y-141080000D03*
X37600000Y-138540000D03*
X37600000Y-136000000D03*
X37600000Y-133460000D03*
X37600000Y-130920000D03*
X37600000Y-128380000D03*
X37600000Y-125840000D03*
D22*
X37600000Y-123300000D03*
%TD*%
D12*
%TO.C,J3*%
X71620000Y-71040000D03*
X71620000Y-68500000D03*
X74160000Y-71040000D03*
X74160000Y-68500000D03*
X76700000Y-71040000D03*
X76700000Y-68500000D03*
X79240000Y-71040000D03*
X79240000Y-68500000D03*
X81780000Y-71040000D03*
X81780000Y-68500000D03*
X84320000Y-71040000D03*
X84320000Y-68500000D03*
X86860000Y-71040000D03*
X86860000Y-68500000D03*
X89400000Y-71040000D03*
X89400000Y-68500000D03*
X91940000Y-71040000D03*
X91940000Y-68500000D03*
X94480000Y-71040000D03*
X94480000Y-68500000D03*
X97020000Y-71040000D03*
X97020000Y-68500000D03*
X99560000Y-71040000D03*
X99560000Y-68500000D03*
X102100000Y-71040000D03*
X102100000Y-68500000D03*
X104640000Y-71040000D03*
X104640000Y-68500000D03*
X107180000Y-71040000D03*
X107180000Y-68500000D03*
X109720000Y-71040000D03*
X109720000Y-68500000D03*
X112260000Y-71040000D03*
X112260000Y-68500000D03*
X114800000Y-71040000D03*
D13*
X114800000Y-68500000D03*
%TD*%
D12*
%TO.C,J2*%
X59100000Y-163220000D03*
X59100000Y-160680000D03*
X59100000Y-158140000D03*
X59100000Y-155600000D03*
X59100000Y-153060000D03*
X59100000Y-150520000D03*
X59100000Y-147980000D03*
X59100000Y-145440000D03*
X59100000Y-142900000D03*
X59100000Y-140360000D03*
X59100000Y-137820000D03*
X59100000Y-135280000D03*
X59100000Y-132740000D03*
X59100000Y-130200000D03*
X59100000Y-127660000D03*
X59100000Y-125120000D03*
X59100000Y-122580000D03*
X59100000Y-120040000D03*
X59100000Y-117500000D03*
X59100000Y-114960000D03*
X59100000Y-112420000D03*
X59100000Y-109880000D03*
X59100000Y-107340000D03*
D13*
X59100000Y-104800000D03*
%TD*%
D23*
%TO.C,J1*%
X130960000Y-59060000D03*
D21*
X130960000Y-61600000D03*
D23*
X133500000Y-59060000D03*
D22*
X133500000Y-61600000D03*
%TD*%
D24*
%TO.C,D2*%
X129100000Y-109340000D03*
D25*
X129100000Y-119500000D03*
%TD*%
D24*
%TO.C,D1*%
X128800000Y-90440000D03*
D25*
X128800000Y-100600000D03*
%TD*%
D16*
%TO.C,C2*%
X138300000Y-117000000D03*
X133300000Y-117000000D03*
%TD*%
%TO.C,C1*%
X122600000Y-89000000D03*
X122600000Y-94000000D03*
%TD*%
M02*
